<?xml version="1.0" encoding="UTF-8"?>
<svg xmlns="http://www.w3.org/2000/svg" xmlns:xlink="http://www.w3.org/1999/xlink" width="108px" height="108px" viewBox="0 0 108 108" version="1.1">
<g id="surface1">
<path style=" stroke:none;fill-rule:nonzero;fill:rgb(0%,0%,0%);fill-opacity:1; transform: scale(0.5, 0.5) translate(54, 54);" d="M 76.5 54 C 78.984375 54 81 56.015625 81 58.5 L 81 99 L 72 99 L 72 63 L 36 63 L 36 99 L 27 99 L 27 58.5 C 27 56.015625 29.015625 54 31.5 54 Z M 54 72 L 54 81 L 45 81 L 45 72 Z M 54 27 C 64.226562 26.996094 73.582031 32.773438 78.15625 41.921875 L 70.101562 45.949219 C 67.054688 39.847656 60.820312 35.992188 53.996094 35.992188 C 47.175781 35.992188 40.941406 39.847656 37.894531 45.949219 L 29.84375 41.921875 C 34.417969 32.773438 43.773438 26.996094 54 27 Z M 54 9 C 71.046875 8.996094 86.632812 18.625 94.257812 33.871094 L 86.207031 37.898438 C 80.105469 25.699219 67.636719 17.996094 54 18 C 40.363281 17.996094 27.894531 25.699219 21.792969 37.898438 L 13.738281 33.871094 C 21.363281 18.625 36.953125 8.996094 54 9 Z M 54 9 "/>
</g>
</svg>
